ISO-10303-21;
HEADER;
FILE_DESCRIPTION(('FreeCAD Model'),'2;1');
FILE_NAME('Open CASCADE Shape Model','2026-09-12T06:54:57',(''),(''),
  'Open CASCADE STEP processor 7.8','FreeCAD','Unknown');
FILE_SCHEMA(('AUTOMOTIVE_DESIGN { 1 0 10303 214 1 1 1 1 }'));
ENDSEC;
DATA;
#1 = APPLICATION_PROTOCOL_DEFINITION('international standard',
  'automotive_design',2000,#2);
#2 = APPLICATION_CONTEXT(
  'core data for automotive mechanical design processes');
#3 = SHAPE_DEFINITION_REPRESENTATION(#4,#10);
#4 = PRODUCT_DEFINITION_SHAPE('','',#5);
#5 = PRODUCT_DEFINITION('design','',#6,#9);
#6 = PRODUCT_DEFINITION_FORMATION('','',#7);
#7 = PRODUCT('Unnamed','Unnamed','',(#8));
#8 = PRODUCT_CONTEXT('',#2,'mechanical');
#9 = PRODUCT_DEFINITION_CONTEXT('part definition',#2,'design');
#10 = SHAPE_REPRESENTATION('',(#11,#15,#19),#23);
#11 = AXIS2_PLACEMENT_3D('',#12,#13,#14);
#12 = CARTESIAN_POINT('',(0.,0.,0.));
#13 = DIRECTION('',(0.,0.,1.));
#14 = DIRECTION('',(1.,0.,-0.));
#15 = AXIS2_PLACEMENT_3D('',#16,#17,#18);
#16 = CARTESIAN_POINT('',(-4.4,0.,0.));
#17 = DIRECTION('',(0.,0.,1.));
#18 = DIRECTION('',(1.,0.,0.));
#19 = AXIS2_PLACEMENT_3D('',#20,#21,#22);
#20 = CARTESIAN_POINT('',(0.,0.,0.));
#21 = DIRECTION('',(0.,0.,1.));
#22 = DIRECTION('',(1.,0.,0.));
#23 = ( GEOMETRIC_REPRESENTATION_CONTEXT(3) 
GLOBAL_UNCERTAINTY_ASSIGNED_CONTEXT((#27)) GLOBAL_UNIT_ASSIGNED_CONTEXT(
(#24,#25,#26)) REPRESENTATION_CONTEXT('Context #1',
  '3D Context with UNIT and UNCERTAINTY') );
#24 = ( LENGTH_UNIT() NAMED_UNIT(*) SI_UNIT(.MILLI.,.METRE.) );
#25 = ( NAMED_UNIT(*) PLANE_ANGLE_UNIT() SI_UNIT($,.RADIAN.) );
#26 = ( NAMED_UNIT(*) SI_UNIT($,.STERADIAN.) SOLID_ANGLE_UNIT() );
#27 = UNCERTAINTY_MEASURE_WITH_UNIT(LENGTH_MEASURE(1.E-07),#24,
  'distance_accuracy_value','confusion accuracy');
#28 = PRODUCT_RELATED_PRODUCT_CATEGORY('part',$,(#7));
#29 = SHAPE_DEFINITION_REPRESENTATION(#30,#36);
#30 = PRODUCT_DEFINITION_SHAPE('','',#31);
#31 = PRODUCT_DEFINITION('design','',#32,#35);
#32 = PRODUCT_DEFINITION_FORMATION('','',#33);
#33 = PRODUCT('Fusion','Fusion','',(#34));
#34 = PRODUCT_CONTEXT('',#2,'mechanical');
#35 = PRODUCT_DEFINITION_CONTEXT('part definition',#2,'design');
#36 = ADVANCED_BREP_SHAPE_REPRESENTATION('',(#11,#37),#329);
#37 = MANIFOLD_SOLID_BREP('',#38);
#38 = CLOSED_SHELL('',(#39,#79,#110,#175,#192,#209,#221,#252,#276,#300,
    #317));
#39 = ADVANCED_FACE('',(#40),#74,.F.);
#40 = FACE_BOUND('',#41,.F.);
#41 = EDGE_LOOP('',(#42,#52,#60,#68));
#42 = ORIENTED_EDGE('',*,*,#43,.T.);
#43 = EDGE_CURVE('',#44,#46,#48,.T.);
#44 = VERTEX_POINT('',#45);
#45 = CARTESIAN_POINT('',(-4.450934184457,6.5,-2.));
#46 = VERTEX_POINT('',#47);
#47 = CARTESIAN_POINT('',(-4.450934184457,6.5,2.));
#48 = LINE('',#49,#50);
#49 = CARTESIAN_POINT('',(-4.450934184457,6.5,-2.));
#50 = VECTOR('',#51,1.);
#51 = DIRECTION('',(0.,0.,1.));
#52 = ORIENTED_EDGE('',*,*,#53,.T.);
#53 = EDGE_CURVE('',#46,#54,#56,.T.);
#54 = VERTEX_POINT('',#55);
#55 = CARTESIAN_POINT('',(-4.450934184457,-6.5,2.));
#56 = LINE('',#57,#58);
#57 = CARTESIAN_POINT('',(-4.450934184457,6.5,2.));
#58 = VECTOR('',#59,1.);
#59 = DIRECTION('',(0.,-1.,0.));
#60 = ORIENTED_EDGE('',*,*,#61,.F.);
#61 = EDGE_CURVE('',#62,#54,#64,.T.);
#62 = VERTEX_POINT('',#63);
#63 = CARTESIAN_POINT('',(-4.450934184457,-6.5,-2.));
#64 = LINE('',#65,#66);
#65 = CARTESIAN_POINT('',(-4.450934184457,-6.5,-2.));
#66 = VECTOR('',#67,1.);
#67 = DIRECTION('',(0.,0.,1.));
#68 = ORIENTED_EDGE('',*,*,#69,.F.);
#69 = EDGE_CURVE('',#44,#62,#70,.T.);
#70 = LINE('',#71,#72);
#71 = CARTESIAN_POINT('',(-4.450934184457,6.5,-2.));
#72 = VECTOR('',#73,1.);
#73 = DIRECTION('',(0.,-1.,0.));
#74 = PLANE('',#75);
#75 = AXIS2_PLACEMENT_3D('',#76,#77,#78);
#76 = CARTESIAN_POINT('',(-4.450934184457,6.5,-2.));
#77 = DIRECTION('',(1.,0.,0.));
#78 = DIRECTION('',(0.,-1.,0.));
#79 = ADVANCED_FACE('',(#80),#105,.F.);
#80 = FACE_BOUND('',#81,.F.);
#81 = EDGE_LOOP('',(#82,#92,#98,#99));
#82 = ORIENTED_EDGE('',*,*,#83,.T.);
#83 = EDGE_CURVE('',#84,#86,#88,.T.);
#84 = VERTEX_POINT('',#85);
#85 = CARTESIAN_POINT('',(3.549065815543,6.5,-2.));
#86 = VERTEX_POINT('',#87);
#87 = CARTESIAN_POINT('',(3.549065815543,6.5,2.));
#88 = LINE('',#89,#90);
#89 = CARTESIAN_POINT('',(3.549065815543,6.5,-2.));
#90 = VECTOR('',#91,1.);
#91 = DIRECTION('',(0.,0.,1.));
#92 = ORIENTED_EDGE('',*,*,#93,.T.);
#93 = EDGE_CURVE('',#86,#46,#94,.T.);
#94 = LINE('',#95,#96);
#95 = CARTESIAN_POINT('',(3.549065815543,6.5,2.));
#96 = VECTOR('',#97,1.);
#97 = DIRECTION('',(-1.,0.,0.));
#98 = ORIENTED_EDGE('',*,*,#43,.F.);
#99 = ORIENTED_EDGE('',*,*,#100,.F.);
#100 = EDGE_CURVE('',#84,#44,#101,.T.);
#101 = LINE('',#102,#103);
#102 = CARTESIAN_POINT('',(3.549065815543,6.5,-2.));
#103 = VECTOR('',#104,1.);
#104 = DIRECTION('',(-1.,0.,0.));
#105 = PLANE('',#106);
#106 = AXIS2_PLACEMENT_3D('',#107,#108,#109);
#107 = CARTESIAN_POINT('',(3.549065815543,6.5,-2.));
#108 = DIRECTION('',(0.,-1.,0.));
#109 = DIRECTION('',(-1.,0.,0.));
#110 = ADVANCED_FACE('',(#111,#136),#170,.F.);
#111 = FACE_BOUND('',#112,.F.);
#112 = EDGE_LOOP('',(#113,#114,#122,#130));
#113 = ORIENTED_EDGE('',*,*,#61,.T.);
#114 = ORIENTED_EDGE('',*,*,#115,.T.);
#115 = EDGE_CURVE('',#54,#116,#118,.T.);
#116 = VERTEX_POINT('',#117);
#117 = CARTESIAN_POINT('',(3.549065815543,-6.5,2.));
#118 = LINE('',#119,#120);
#119 = CARTESIAN_POINT('',(-4.450934184457,-6.5,2.));
#120 = VECTOR('',#121,1.);
#121 = DIRECTION('',(1.,0.,0.));
#122 = ORIENTED_EDGE('',*,*,#123,.F.);
#123 = EDGE_CURVE('',#124,#116,#126,.T.);
#124 = VERTEX_POINT('',#125);
#125 = CARTESIAN_POINT('',(3.549065815543,-6.5,-2.));
#126 = LINE('',#127,#128);
#127 = CARTESIAN_POINT('',(3.549065815543,-6.5,-2.));
#128 = VECTOR('',#129,1.);
#129 = DIRECTION('',(0.,0.,1.));
#130 = ORIENTED_EDGE('',*,*,#131,.F.);
#131 = EDGE_CURVE('',#62,#124,#132,.T.);
#132 = LINE('',#133,#134);
#133 = CARTESIAN_POINT('',(-4.450934184457,-6.5,-2.));
#134 = VECTOR('',#135,1.);
#135 = DIRECTION('',(1.,0.,0.));
#136 = FACE_BOUND('',#137,.F.);
#137 = EDGE_LOOP('',(#138,#148,#156,#164));
#138 = ORIENTED_EDGE('',*,*,#139,.T.);
#139 = EDGE_CURVE('',#140,#142,#144,.T.);
#140 = VERTEX_POINT('',#141);
#141 = CARTESIAN_POINT('',(2.049065815543,-6.5,1.));
#142 = VERTEX_POINT('',#143);
#143 = CARTESIAN_POINT('',(-2.950934184457,-6.5,1.));
#144 = LINE('',#145,#146);
#145 = CARTESIAN_POINT('',(2.049065815543,-6.5,1.));
#146 = VECTOR('',#147,1.);
#147 = DIRECTION('',(-1.,0.,0.));
#148 = ORIENTED_EDGE('',*,*,#149,.T.);
#149 = EDGE_CURVE('',#142,#150,#152,.T.);
#150 = VERTEX_POINT('',#151);
#151 = CARTESIAN_POINT('',(-2.950934184457,-6.5,-1.));
#152 = LINE('',#153,#154);
#153 = CARTESIAN_POINT('',(-2.950934184457,-6.5,1.));
#154 = VECTOR('',#155,1.);
#155 = DIRECTION('',(0.,-2.22044604925E-16,-1.));
#156 = ORIENTED_EDGE('',*,*,#157,.T.);
#157 = EDGE_CURVE('',#150,#158,#160,.T.);
#158 = VERTEX_POINT('',#159);
#159 = CARTESIAN_POINT('',(2.049065815543,-6.5,-1.));
#160 = LINE('',#161,#162);
#161 = CARTESIAN_POINT('',(-2.950934184457,-6.5,-1.));
#162 = VECTOR('',#163,1.);
#163 = DIRECTION('',(1.,0.,0.));
#164 = ORIENTED_EDGE('',*,*,#165,.T.);
#165 = EDGE_CURVE('',#158,#140,#166,.T.);
#166 = LINE('',#167,#168);
#167 = CARTESIAN_POINT('',(2.049065815543,-6.5,-1.));
#168 = VECTOR('',#169,1.);
#169 = DIRECTION('',(0.,2.22044604925E-16,1.));
#170 = PLANE('',#171);
#171 = AXIS2_PLACEMENT_3D('',#172,#173,#174);
#172 = CARTESIAN_POINT('',(-4.450934184457,-6.5,-2.));
#173 = DIRECTION('',(0.,1.,0.));
#174 = DIRECTION('',(1.,0.,0.));
#175 = ADVANCED_FACE('',(#176),#187,.F.);
#176 = FACE_BOUND('',#177,.F.);
#177 = EDGE_LOOP('',(#178,#179,#180,#186));
#178 = ORIENTED_EDGE('',*,*,#69,.T.);
#179 = ORIENTED_EDGE('',*,*,#131,.T.);
#180 = ORIENTED_EDGE('',*,*,#181,.T.);
#181 = EDGE_CURVE('',#124,#84,#182,.T.);
#182 = LINE('',#183,#184);
#183 = CARTESIAN_POINT('',(3.549065815543,-6.5,-2.));
#184 = VECTOR('',#185,1.);
#185 = DIRECTION('',(0.,1.,0.));
#186 = ORIENTED_EDGE('',*,*,#100,.T.);
#187 = PLANE('',#188);
#188 = AXIS2_PLACEMENT_3D('',#189,#190,#191);
#189 = CARTESIAN_POINT('',(-0.450934184457,0.,-2.));
#190 = DIRECTION('',(0.,0.,1.));
#191 = DIRECTION('',(1.,0.,0.));
#192 = ADVANCED_FACE('',(#193),#204,.T.);
#193 = FACE_BOUND('',#194,.T.);
#194 = EDGE_LOOP('',(#195,#196,#197,#203));
#195 = ORIENTED_EDGE('',*,*,#53,.T.);
#196 = ORIENTED_EDGE('',*,*,#115,.T.);
#197 = ORIENTED_EDGE('',*,*,#198,.T.);
#198 = EDGE_CURVE('',#116,#86,#199,.T.);
#199 = LINE('',#200,#201);
#200 = CARTESIAN_POINT('',(3.549065815543,-6.5,2.));
#201 = VECTOR('',#202,1.);
#202 = DIRECTION('',(0.,1.,0.));
#203 = ORIENTED_EDGE('',*,*,#93,.T.);
#204 = PLANE('',#205);
#205 = AXIS2_PLACEMENT_3D('',#206,#207,#208);
#206 = CARTESIAN_POINT('',(-0.450934184457,0.,2.));
#207 = DIRECTION('',(0.,0.,1.));
#208 = DIRECTION('',(1.,0.,0.));
#209 = ADVANCED_FACE('',(#210),#216,.F.);
#210 = FACE_BOUND('',#211,.F.);
#211 = EDGE_LOOP('',(#212,#213,#214,#215));
#212 = ORIENTED_EDGE('',*,*,#123,.T.);
#213 = ORIENTED_EDGE('',*,*,#198,.T.);
#214 = ORIENTED_EDGE('',*,*,#83,.F.);
#215 = ORIENTED_EDGE('',*,*,#181,.F.);
#216 = PLANE('',#217);
#217 = AXIS2_PLACEMENT_3D('',#218,#219,#220);
#218 = CARTESIAN_POINT('',(3.549065815543,-6.5,-2.));
#219 = DIRECTION('',(-1.,0.,0.));
#220 = DIRECTION('',(0.,1.,0.));
#221 = ADVANCED_FACE('',(#222),#247,.F.);
#222 = FACE_BOUND('',#223,.F.);
#223 = EDGE_LOOP('',(#224,#232,#240,#246));
#224 = ORIENTED_EDGE('',*,*,#225,.T.);
#225 = EDGE_CURVE('',#140,#226,#228,.T.);
#226 = VERTEX_POINT('',#227);
#227 = CARTESIAN_POINT('',(2.049065815543,-10.5,1.));
#228 = LINE('',#229,#230);
#229 = CARTESIAN_POINT('',(2.049065815543,-6.5,1.));
#230 = VECTOR('',#231,1.);
#231 = DIRECTION('',(0.,-1.,2.22044604925E-16));
#232 = ORIENTED_EDGE('',*,*,#233,.T.);
#233 = EDGE_CURVE('',#226,#234,#236,.T.);
#234 = VERTEX_POINT('',#235);
#235 = CARTESIAN_POINT('',(-2.950934184457,-10.5,1.));
#236 = LINE('',#237,#238);
#237 = CARTESIAN_POINT('',(2.049065815543,-10.5,1.));
#238 = VECTOR('',#239,1.);
#239 = DIRECTION('',(-1.,0.,0.));
#240 = ORIENTED_EDGE('',*,*,#241,.F.);
#241 = EDGE_CURVE('',#142,#234,#242,.T.);
#242 = LINE('',#243,#244);
#243 = CARTESIAN_POINT('',(-2.950934184457,-6.5,1.));
#244 = VECTOR('',#245,1.);
#245 = DIRECTION('',(0.,-1.,2.22044604925E-16));
#246 = ORIENTED_EDGE('',*,*,#139,.F.);
#247 = PLANE('',#248);
#248 = AXIS2_PLACEMENT_3D('',#249,#250,#251);
#249 = CARTESIAN_POINT('',(2.049065815543,-6.5,1.));
#250 = DIRECTION('',(-0.,-2.22044604925E-16,-1.));
#251 = DIRECTION('',(-1.,0.,0.));
#252 = ADVANCED_FACE('',(#253),#271,.F.);
#253 = FACE_BOUND('',#254,.F.);
#254 = EDGE_LOOP('',(#255,#263,#269,#270));
#255 = ORIENTED_EDGE('',*,*,#256,.T.);
#256 = EDGE_CURVE('',#158,#257,#259,.T.);
#257 = VERTEX_POINT('',#258);
#258 = CARTESIAN_POINT('',(2.049065815543,-10.5,-1.));
#259 = LINE('',#260,#261);
#260 = CARTESIAN_POINT('',(2.049065815543,-6.5,-1.));
#261 = VECTOR('',#262,1.);
#262 = DIRECTION('',(0.,-1.,2.22044604925E-16));
#263 = ORIENTED_EDGE('',*,*,#264,.T.);
#264 = EDGE_CURVE('',#257,#226,#265,.T.);
#265 = LINE('',#266,#267);
#266 = CARTESIAN_POINT('',(2.049065815543,-10.5,-1.));
#267 = VECTOR('',#268,1.);
#268 = DIRECTION('',(0.,2.22044604925E-16,1.));
#269 = ORIENTED_EDGE('',*,*,#225,.F.);
#270 = ORIENTED_EDGE('',*,*,#165,.F.);
#271 = PLANE('',#272);
#272 = AXIS2_PLACEMENT_3D('',#273,#274,#275);
#273 = CARTESIAN_POINT('',(2.049065815543,-6.5,-1.));
#274 = DIRECTION('',(-1.,0.,0.));
#275 = DIRECTION('',(0.,2.22044604925E-16,1.));
#276 = ADVANCED_FACE('',(#277),#295,.F.);
#277 = FACE_BOUND('',#278,.F.);
#278 = EDGE_LOOP('',(#279,#287,#293,#294));
#279 = ORIENTED_EDGE('',*,*,#280,.T.);
#280 = EDGE_CURVE('',#150,#281,#283,.T.);
#281 = VERTEX_POINT('',#282);
#282 = CARTESIAN_POINT('',(-2.950934184457,-10.5,-1.));
#283 = LINE('',#284,#285);
#284 = CARTESIAN_POINT('',(-2.950934184457,-6.5,-1.));
#285 = VECTOR('',#286,1.);
#286 = DIRECTION('',(0.,-1.,2.22044604925E-16));
#287 = ORIENTED_EDGE('',*,*,#288,.T.);
#288 = EDGE_CURVE('',#281,#257,#289,.T.);
#289 = LINE('',#290,#291);
#290 = CARTESIAN_POINT('',(-2.950934184457,-10.5,-1.));
#291 = VECTOR('',#292,1.);
#292 = DIRECTION('',(1.,0.,0.));
#293 = ORIENTED_EDGE('',*,*,#256,.F.);
#294 = ORIENTED_EDGE('',*,*,#157,.F.);
#295 = PLANE('',#296);
#296 = AXIS2_PLACEMENT_3D('',#297,#298,#299);
#297 = CARTESIAN_POINT('',(-2.950934184457,-6.5,-1.));
#298 = DIRECTION('',(0.,2.22044604925E-16,1.));
#299 = DIRECTION('',(1.,0.,0.));
#300 = ADVANCED_FACE('',(#301),#312,.F.);
#301 = FACE_BOUND('',#302,.F.);
#302 = EDGE_LOOP('',(#303,#304,#310,#311));
#303 = ORIENTED_EDGE('',*,*,#241,.T.);
#304 = ORIENTED_EDGE('',*,*,#305,.T.);
#305 = EDGE_CURVE('',#234,#281,#306,.T.);
#306 = LINE('',#307,#308);
#307 = CARTESIAN_POINT('',(-2.950934184457,-10.5,1.));
#308 = VECTOR('',#309,1.);
#309 = DIRECTION('',(0.,-2.22044604925E-16,-1.));
#310 = ORIENTED_EDGE('',*,*,#280,.F.);
#311 = ORIENTED_EDGE('',*,*,#149,.F.);
#312 = PLANE('',#313);
#313 = AXIS2_PLACEMENT_3D('',#314,#315,#316);
#314 = CARTESIAN_POINT('',(-2.950934184457,-6.5,1.));
#315 = DIRECTION('',(1.,0.,0.));
#316 = DIRECTION('',(0.,-2.22044604925E-16,-1.));
#317 = ADVANCED_FACE('',(#318),#324,.F.);
#318 = FACE_BOUND('',#319,.T.);
#319 = EDGE_LOOP('',(#320,#321,#322,#323));
#320 = ORIENTED_EDGE('',*,*,#305,.T.);
#321 = ORIENTED_EDGE('',*,*,#288,.T.);
#322 = ORIENTED_EDGE('',*,*,#264,.T.);
#323 = ORIENTED_EDGE('',*,*,#233,.T.);
#324 = PLANE('',#325);
#325 = AXIS2_PLACEMENT_3D('',#326,#327,#328);
#326 = CARTESIAN_POINT('',(-0.450934184457,-10.5,1.268826313857E-15));
#327 = DIRECTION('',(0.,1.,0.));
#328 = DIRECTION('',(0.,0.,1.));
#329 = ( GEOMETRIC_REPRESENTATION_CONTEXT(3) 
GLOBAL_UNCERTAINTY_ASSIGNED_CONTEXT((#333)) GLOBAL_UNIT_ASSIGNED_CONTEXT
((#330,#331,#332)) REPRESENTATION_CONTEXT('Context #1',
  '3D Context with UNIT and UNCERTAINTY') );
#330 = ( LENGTH_UNIT() NAMED_UNIT(*) SI_UNIT(.MILLI.,.METRE.) );
#331 = ( NAMED_UNIT(*) PLANE_ANGLE_UNIT() SI_UNIT($,.RADIAN.) );
#332 = ( NAMED_UNIT(*) SI_UNIT($,.STERADIAN.) SOLID_ANGLE_UNIT() );
#333 = UNCERTAINTY_MEASURE_WITH_UNIT(LENGTH_MEASURE(1.E-07),#330,
  'distance_accuracy_value','confusion accuracy');
#334 = CONTEXT_DEPENDENT_SHAPE_REPRESENTATION(#335,#337);
#335 = ( REPRESENTATION_RELATIONSHIP('','',#36,#10) 
REPRESENTATION_RELATIONSHIP_WITH_TRANSFORMATION(#336) 
SHAPE_REPRESENTATION_RELATIONSHIP() );
#336 = ITEM_DEFINED_TRANSFORMATION('','',#11,#15);
#337 = PRODUCT_DEFINITION_SHAPE('Placement','Placement of an item',#338
  );
#338 = NEXT_ASSEMBLY_USAGE_OCCURRENCE('1','Fusion','',#5,#31,$);
#339 = PRODUCT_RELATED_PRODUCT_CATEGORY('part',$,(#33));
#340 = SHAPE_DEFINITION_REPRESENTATION(#341,#347);
#341 = PRODUCT_DEFINITION_SHAPE('','',#342);
#342 = PRODUCT_DEFINITION('design','',#343,#346);
#343 = PRODUCT_DEFINITION_FORMATION('','',#344);
#344 = PRODUCT('Cut','Cut','',(#345));
#345 = PRODUCT_CONTEXT('',#2,'mechanical');
#346 = PRODUCT_DEFINITION_CONTEXT('part definition',#2,'design');
#347 = ADVANCED_BREP_SHAPE_REPRESENTATION('',(#11,#348),#810);
#348 = MANIFOLD_SOLID_BREP('',#349);
#349 = CLOSED_SHELL('',(#350,#390,#421,#452,#557,#662,#674,#691,#708,
    #725,#742,#759,#776,#793));
#350 = ADVANCED_FACE('',(#351),#385,.F.);
#351 = FACE_BOUND('',#352,.F.);
#352 = EDGE_LOOP('',(#353,#363,#371,#379));
#353 = ORIENTED_EDGE('',*,*,#354,.T.);
#354 = EDGE_CURVE('',#355,#357,#359,.T.);
#355 = VERTEX_POINT('',#356);
#356 = CARTESIAN_POINT('',(-14.75,4.5,-1.));
#357 = VERTEX_POINT('',#358);
#358 = CARTESIAN_POINT('',(-14.75,4.5,1.));
#359 = LINE('',#360,#361);
#360 = CARTESIAN_POINT('',(-14.75,4.5,-1.));
#361 = VECTOR('',#362,1.);
#362 = DIRECTION('',(0.,0.,1.));
#363 = ORIENTED_EDGE('',*,*,#364,.T.);
#364 = EDGE_CURVE('',#357,#365,#367,.T.);
#365 = VERTEX_POINT('',#366);
#366 = CARTESIAN_POINT('',(-14.75,-4.5,1.));
#367 = LINE('',#368,#369);
#368 = CARTESIAN_POINT('',(-14.75,4.5,1.));
#369 = VECTOR('',#370,1.);
#370 = DIRECTION('',(0.,-1.,0.));
#371 = ORIENTED_EDGE('',*,*,#372,.F.);
#372 = EDGE_CURVE('',#373,#365,#375,.T.);
#373 = VERTEX_POINT('',#374);
#374 = CARTESIAN_POINT('',(-14.75,-4.5,-1.));
#375 = LINE('',#376,#377);
#376 = CARTESIAN_POINT('',(-14.75,-4.5,-1.));
#377 = VECTOR('',#378,1.);
#378 = DIRECTION('',(0.,0.,1.));
#379 = ORIENTED_EDGE('',*,*,#380,.F.);
#380 = EDGE_CURVE('',#355,#373,#381,.T.);
#381 = LINE('',#382,#383);
#382 = CARTESIAN_POINT('',(-14.75,4.5,-1.));
#383 = VECTOR('',#384,1.);
#384 = DIRECTION('',(0.,-1.,0.));
#385 = PLANE('',#386);
#386 = AXIS2_PLACEMENT_3D('',#387,#388,#389);
#387 = CARTESIAN_POINT('',(-14.75,4.5,-1.));
#388 = DIRECTION('',(1.,0.,0.));
#389 = DIRECTION('',(0.,-1.,0.));
#390 = ADVANCED_FACE('',(#391),#416,.F.);
#391 = FACE_BOUND('',#392,.F.);
#392 = EDGE_LOOP('',(#393,#403,#409,#410));
#393 = ORIENTED_EDGE('',*,*,#394,.T.);
#394 = EDGE_CURVE('',#395,#397,#399,.T.);
#395 = VERTEX_POINT('',#396);
#396 = CARTESIAN_POINT('',(14.75,4.5,-1.));
#397 = VERTEX_POINT('',#398);
#398 = CARTESIAN_POINT('',(14.75,4.5,1.));
#399 = LINE('',#400,#401);
#400 = CARTESIAN_POINT('',(14.75,4.5,-1.));
#401 = VECTOR('',#402,1.);
#402 = DIRECTION('',(0.,0.,1.));
#403 = ORIENTED_EDGE('',*,*,#404,.T.);
#404 = EDGE_CURVE('',#397,#357,#405,.T.);
#405 = LINE('',#406,#407);
#406 = CARTESIAN_POINT('',(14.75,4.5,1.));
#407 = VECTOR('',#408,1.);
#408 = DIRECTION('',(-1.,0.,0.));
#409 = ORIENTED_EDGE('',*,*,#354,.F.);
#410 = ORIENTED_EDGE('',*,*,#411,.F.);
#411 = EDGE_CURVE('',#395,#355,#412,.T.);
#412 = LINE('',#413,#414);
#413 = CARTESIAN_POINT('',(14.75,4.5,-1.));
#414 = VECTOR('',#415,1.);
#415 = DIRECTION('',(-1.,0.,0.));
#416 = PLANE('',#417);
#417 = AXIS2_PLACEMENT_3D('',#418,#419,#420);
#418 = CARTESIAN_POINT('',(14.75,4.5,-1.));
#419 = DIRECTION('',(0.,-1.,0.));
#420 = DIRECTION('',(-1.,0.,0.));
#421 = ADVANCED_FACE('',(#422),#447,.F.);
#422 = FACE_BOUND('',#423,.F.);
#423 = EDGE_LOOP('',(#424,#425,#433,#441));
#424 = ORIENTED_EDGE('',*,*,#372,.T.);
#425 = ORIENTED_EDGE('',*,*,#426,.T.);
#426 = EDGE_CURVE('',#365,#427,#429,.T.);
#427 = VERTEX_POINT('',#428);
#428 = CARTESIAN_POINT('',(14.75,-4.5,1.));
#429 = LINE('',#430,#431);
#430 = CARTESIAN_POINT('',(-14.75,-4.5,1.));
#431 = VECTOR('',#432,1.);
#432 = DIRECTION('',(1.,0.,0.));
#433 = ORIENTED_EDGE('',*,*,#434,.F.);
#434 = EDGE_CURVE('',#435,#427,#437,.T.);
#435 = VERTEX_POINT('',#436);
#436 = CARTESIAN_POINT('',(14.75,-4.5,-1.));
#437 = LINE('',#438,#439);
#438 = CARTESIAN_POINT('',(14.75,-4.5,-1.));
#439 = VECTOR('',#440,1.);
#440 = DIRECTION('',(0.,0.,1.));
#441 = ORIENTED_EDGE('',*,*,#442,.F.);
#442 = EDGE_CURVE('',#373,#435,#443,.T.);
#443 = LINE('',#444,#445);
#444 = CARTESIAN_POINT('',(-14.75,-4.5,-1.));
#445 = VECTOR('',#446,1.);
#446 = DIRECTION('',(1.,0.,0.));
#447 = PLANE('',#448);
#448 = AXIS2_PLACEMENT_3D('',#449,#450,#451);
#449 = CARTESIAN_POINT('',(-14.75,-4.5,-1.));
#450 = DIRECTION('',(0.,1.,0.));
#451 = DIRECTION('',(1.,0.,0.));
#452 = ADVANCED_FACE('',(#453,#464,#475,#486,#497,#508,#519,#530,#541),
  #552,.F.);
#453 = FACE_BOUND('',#454,.F.);
#454 = EDGE_LOOP('',(#455,#456,#457,#463));
#455 = ORIENTED_EDGE('',*,*,#380,.T.);
#456 = ORIENTED_EDGE('',*,*,#442,.T.);
#457 = ORIENTED_EDGE('',*,*,#458,.T.);
#458 = EDGE_CURVE('',#435,#395,#459,.T.);
#459 = LINE('',#460,#461);
#460 = CARTESIAN_POINT('',(14.75,-4.5,-1.));
#461 = VECTOR('',#462,1.);
#462 = DIRECTION('',(0.,1.,0.));
#463 = ORIENTED_EDGE('',*,*,#411,.T.);
#464 = FACE_BOUND('',#465,.F.);
#465 = EDGE_LOOP('',(#466));
#466 = ORIENTED_EDGE('',*,*,#467,.T.);
#467 = EDGE_CURVE('',#468,#468,#470,.T.);
#468 = VERTEX_POINT('',#469);
#469 = CARTESIAN_POINT('',(-11.75,-2.5,-1.));
#470 = CIRCLE('',#471,1.);
#471 = AXIS2_PLACEMENT_3D('',#472,#473,#474);
#472 = CARTESIAN_POINT('',(-12.75,-2.5,-1.));
#473 = DIRECTION('',(0.,0.,-1.));
#474 = DIRECTION('',(1.,0.,0.));
#475 = FACE_BOUND('',#476,.F.);
#476 = EDGE_LOOP('',(#477));
#477 = ORIENTED_EDGE('',*,*,#478,.T.);
#478 = EDGE_CURVE('',#479,#479,#481,.T.);
#479 = VERTEX_POINT('',#480);
#480 = CARTESIAN_POINT('',(-8.75,-2.5,-1.));
#481 = CIRCLE('',#482,1.);
#482 = AXIS2_PLACEMENT_3D('',#483,#484,#485);
#483 = CARTESIAN_POINT('',(-9.75,-2.5,-1.));
#484 = DIRECTION('',(0.,0.,-1.));
#485 = DIRECTION('',(1.,0.,0.));
#486 = FACE_BOUND('',#487,.F.);
#487 = EDGE_LOOP('',(#488));
#488 = ORIENTED_EDGE('',*,*,#489,.T.);
#489 = EDGE_CURVE('',#490,#490,#492,.T.);
#490 = VERTEX_POINT('',#491);
#491 = CARTESIAN_POINT('',(10.75,-2.5,-1.));
#492 = CIRCLE('',#493,1.);
#493 = AXIS2_PLACEMENT_3D('',#494,#495,#496);
#494 = CARTESIAN_POINT('',(9.75,-2.5,-1.));
#495 = DIRECTION('',(0.,0.,-1.));
#496 = DIRECTION('',(1.,0.,0.));
#497 = FACE_BOUND('',#498,.F.);
#498 = EDGE_LOOP('',(#499));
#499 = ORIENTED_EDGE('',*,*,#500,.T.);
#500 = EDGE_CURVE('',#501,#501,#503,.T.);
#501 = VERTEX_POINT('',#502);
#502 = CARTESIAN_POINT('',(13.75,-2.5,-1.));
#503 = CIRCLE('',#504,1.);
#504 = AXIS2_PLACEMENT_3D('',#505,#506,#507);
#505 = CARTESIAN_POINT('',(12.75,-2.5,-1.));
#506 = DIRECTION('',(0.,0.,-1.));
#507 = DIRECTION('',(1.,0.,0.));
#508 = FACE_BOUND('',#509,.F.);
#509 = EDGE_LOOP('',(#510));
#510 = ORIENTED_EDGE('',*,*,#511,.T.);
#511 = EDGE_CURVE('',#512,#512,#514,.T.);
#512 = VERTEX_POINT('',#513);
#513 = CARTESIAN_POINT('',(-11.75,2.5,-1.));
#514 = CIRCLE('',#515,1.);
#515 = AXIS2_PLACEMENT_3D('',#516,#517,#518);
#516 = CARTESIAN_POINT('',(-12.75,2.5,-1.));
#517 = DIRECTION('',(0.,0.,-1.));
#518 = DIRECTION('',(1.,0.,0.));
#519 = FACE_BOUND('',#520,.F.);
#520 = EDGE_LOOP('',(#521));
#521 = ORIENTED_EDGE('',*,*,#522,.T.);
#522 = EDGE_CURVE('',#523,#523,#525,.T.);
#523 = VERTEX_POINT('',#524);
#524 = CARTESIAN_POINT('',(-8.75,2.5,-1.));
#525 = CIRCLE('',#526,1.);
#526 = AXIS2_PLACEMENT_3D('',#527,#528,#529);
#527 = CARTESIAN_POINT('',(-9.75,2.5,-1.));
#528 = DIRECTION('',(0.,0.,-1.));
#529 = DIRECTION('',(1.,0.,0.));
#530 = FACE_BOUND('',#531,.F.);
#531 = EDGE_LOOP('',(#532));
#532 = ORIENTED_EDGE('',*,*,#533,.T.);
#533 = EDGE_CURVE('',#534,#534,#536,.T.);
#534 = VERTEX_POINT('',#535);
#535 = CARTESIAN_POINT('',(10.75,2.5,-1.));
#536 = CIRCLE('',#537,1.);
#537 = AXIS2_PLACEMENT_3D('',#538,#539,#540);
#538 = CARTESIAN_POINT('',(9.75,2.5,-1.));
#539 = DIRECTION('',(0.,0.,-1.));
#540 = DIRECTION('',(1.,0.,0.));
#541 = FACE_BOUND('',#542,.F.);
#542 = EDGE_LOOP('',(#543));
#543 = ORIENTED_EDGE('',*,*,#544,.T.);
#544 = EDGE_CURVE('',#545,#545,#547,.T.);
#545 = VERTEX_POINT('',#546);
#546 = CARTESIAN_POINT('',(13.75,2.5,-1.));
#547 = CIRCLE('',#548,1.);
#548 = AXIS2_PLACEMENT_3D('',#549,#550,#551);
#549 = CARTESIAN_POINT('',(12.75,2.5,-1.));
#550 = DIRECTION('',(0.,0.,-1.));
#551 = DIRECTION('',(1.,0.,0.));
#552 = PLANE('',#553);
#553 = AXIS2_PLACEMENT_3D('',#554,#555,#556);
#554 = CARTESIAN_POINT('',(0.,0.,-1.));
#555 = DIRECTION('',(0.,0.,1.));
#556 = DIRECTION('',(1.,0.,0.));
#557 = ADVANCED_FACE('',(#558,#569,#580,#591,#602,#613,#624,#635,#646),
  #657,.T.);
#558 = FACE_BOUND('',#559,.T.);
#559 = EDGE_LOOP('',(#560,#561,#562,#568));
#560 = ORIENTED_EDGE('',*,*,#364,.T.);
#561 = ORIENTED_EDGE('',*,*,#426,.T.);
#562 = ORIENTED_EDGE('',*,*,#563,.T.);
#563 = EDGE_CURVE('',#427,#397,#564,.T.);
#564 = LINE('',#565,#566);
#565 = CARTESIAN_POINT('',(14.75,-4.5,1.));
#566 = VECTOR('',#567,1.);
#567 = DIRECTION('',(0.,1.,0.));
#568 = ORIENTED_EDGE('',*,*,#404,.T.);
#569 = FACE_BOUND('',#570,.T.);
#570 = EDGE_LOOP('',(#571));
#571 = ORIENTED_EDGE('',*,*,#572,.T.);
#572 = EDGE_CURVE('',#573,#573,#575,.T.);
#573 = VERTEX_POINT('',#574);
#574 = CARTESIAN_POINT('',(-11.75,-2.5,1.));
#575 = CIRCLE('',#576,1.);
#576 = AXIS2_PLACEMENT_3D('',#577,#578,#579);
#577 = CARTESIAN_POINT('',(-12.75,-2.5,1.));
#578 = DIRECTION('',(0.,0.,-1.));
#579 = DIRECTION('',(1.,0.,0.));
#580 = FACE_BOUND('',#581,.T.);
#581 = EDGE_LOOP('',(#582));
#582 = ORIENTED_EDGE('',*,*,#583,.T.);
#583 = EDGE_CURVE('',#584,#584,#586,.T.);
#584 = VERTEX_POINT('',#585);
#585 = CARTESIAN_POINT('',(-8.75,-2.5,1.));
#586 = CIRCLE('',#587,1.);
#587 = AXIS2_PLACEMENT_3D('',#588,#589,#590);
#588 = CARTESIAN_POINT('',(-9.75,-2.5,1.));
#589 = DIRECTION('',(0.,0.,-1.));
#590 = DIRECTION('',(1.,0.,0.));
#591 = FACE_BOUND('',#592,.T.);
#592 = EDGE_LOOP('',(#593));
#593 = ORIENTED_EDGE('',*,*,#594,.T.);
#594 = EDGE_CURVE('',#595,#595,#597,.T.);
#595 = VERTEX_POINT('',#596);
#596 = CARTESIAN_POINT('',(10.75,-2.5,1.));
#597 = CIRCLE('',#598,1.);
#598 = AXIS2_PLACEMENT_3D('',#599,#600,#601);
#599 = CARTESIAN_POINT('',(9.75,-2.5,1.));
#600 = DIRECTION('',(0.,0.,-1.));
#601 = DIRECTION('',(1.,0.,0.));
#602 = FACE_BOUND('',#603,.T.);
#603 = EDGE_LOOP('',(#604));
#604 = ORIENTED_EDGE('',*,*,#605,.T.);
#605 = EDGE_CURVE('',#606,#606,#608,.T.);
#606 = VERTEX_POINT('',#607);
#607 = CARTESIAN_POINT('',(13.75,-2.5,1.));
#608 = CIRCLE('',#609,1.);
#609 = AXIS2_PLACEMENT_3D('',#610,#611,#612);
#610 = CARTESIAN_POINT('',(12.75,-2.5,1.));
#611 = DIRECTION('',(0.,0.,-1.));
#612 = DIRECTION('',(1.,0.,0.));
#613 = FACE_BOUND('',#614,.T.);
#614 = EDGE_LOOP('',(#615));
#615 = ORIENTED_EDGE('',*,*,#616,.T.);
#616 = EDGE_CURVE('',#617,#617,#619,.T.);
#617 = VERTEX_POINT('',#618);
#618 = CARTESIAN_POINT('',(-11.75,2.5,1.));
#619 = CIRCLE('',#620,1.);
#620 = AXIS2_PLACEMENT_3D('',#621,#622,#623);
#621 = CARTESIAN_POINT('',(-12.75,2.5,1.));
#622 = DIRECTION('',(0.,0.,-1.));
#623 = DIRECTION('',(1.,0.,0.));
#624 = FACE_BOUND('',#625,.T.);
#625 = EDGE_LOOP('',(#626));
#626 = ORIENTED_EDGE('',*,*,#627,.T.);
#627 = EDGE_CURVE('',#628,#628,#630,.T.);
#628 = VERTEX_POINT('',#629);
#629 = CARTESIAN_POINT('',(-8.75,2.5,1.));
#630 = CIRCLE('',#631,1.);
#631 = AXIS2_PLACEMENT_3D('',#632,#633,#634);
#632 = CARTESIAN_POINT('',(-9.75,2.5,1.));
#633 = DIRECTION('',(0.,0.,-1.));
#634 = DIRECTION('',(1.,0.,0.));
#635 = FACE_BOUND('',#636,.T.);
#636 = EDGE_LOOP('',(#637));
#637 = ORIENTED_EDGE('',*,*,#638,.T.);
#638 = EDGE_CURVE('',#639,#639,#641,.T.);
#639 = VERTEX_POINT('',#640);
#640 = CARTESIAN_POINT('',(10.75,2.5,1.));
#641 = CIRCLE('',#642,1.);
#642 = AXIS2_PLACEMENT_3D('',#643,#644,#645);
#643 = CARTESIAN_POINT('',(9.75,2.5,1.));
#644 = DIRECTION('',(0.,0.,-1.));
#645 = DIRECTION('',(1.,0.,0.));
#646 = FACE_BOUND('',#647,.T.);
#647 = EDGE_LOOP('',(#648));
#648 = ORIENTED_EDGE('',*,*,#649,.T.);
#649 = EDGE_CURVE('',#650,#650,#652,.T.);
#650 = VERTEX_POINT('',#651);
#651 = CARTESIAN_POINT('',(13.75,2.5,1.));
#652 = CIRCLE('',#653,1.);
#653 = AXIS2_PLACEMENT_3D('',#654,#655,#656);
#654 = CARTESIAN_POINT('',(12.75,2.5,1.));
#655 = DIRECTION('',(0.,0.,-1.));
#656 = DIRECTION('',(1.,0.,0.));
#657 = PLANE('',#658);
#658 = AXIS2_PLACEMENT_3D('',#659,#660,#661);
#659 = CARTESIAN_POINT('',(0.,0.,1.));
#660 = DIRECTION('',(0.,0.,1.));
#661 = DIRECTION('',(1.,0.,0.));
#662 = ADVANCED_FACE('',(#663),#669,.F.);
#663 = FACE_BOUND('',#664,.F.);
#664 = EDGE_LOOP('',(#665,#666,#667,#668));
#665 = ORIENTED_EDGE('',*,*,#434,.T.);
#666 = ORIENTED_EDGE('',*,*,#563,.T.);
#667 = ORIENTED_EDGE('',*,*,#394,.F.);
#668 = ORIENTED_EDGE('',*,*,#458,.F.);
#669 = PLANE('',#670);
#670 = AXIS2_PLACEMENT_3D('',#671,#672,#673);
#671 = CARTESIAN_POINT('',(14.75,-4.5,-1.));
#672 = DIRECTION('',(-1.,0.,0.));
#673 = DIRECTION('',(0.,1.,0.));
#674 = ADVANCED_FACE('',(#675),#686,.F.);
#675 = FACE_BOUND('',#676,.T.);
#676 = EDGE_LOOP('',(#677,#678,#684,#685));
#677 = ORIENTED_EDGE('',*,*,#467,.T.);
#678 = ORIENTED_EDGE('',*,*,#679,.T.);
#679 = EDGE_CURVE('',#468,#573,#680,.T.);
#680 = LINE('',#681,#682);
#681 = CARTESIAN_POINT('',(-11.75,-2.5,-4.));
#682 = VECTOR('',#683,1.);
#683 = DIRECTION('',(0.,0.,1.));
#684 = ORIENTED_EDGE('',*,*,#572,.F.);
#685 = ORIENTED_EDGE('',*,*,#679,.F.);
#686 = CYLINDRICAL_SURFACE('',#687,1.);
#687 = AXIS2_PLACEMENT_3D('',#688,#689,#690);
#688 = CARTESIAN_POINT('',(-12.75,-2.5,-4.));
#689 = DIRECTION('',(-0.,-0.,-1.));
#690 = DIRECTION('',(1.,0.,0.));
#691 = ADVANCED_FACE('',(#692),#703,.F.);
#692 = FACE_BOUND('',#693,.T.);
#693 = EDGE_LOOP('',(#694,#695,#701,#702));
#694 = ORIENTED_EDGE('',*,*,#478,.T.);
#695 = ORIENTED_EDGE('',*,*,#696,.T.);
#696 = EDGE_CURVE('',#479,#584,#697,.T.);
#697 = LINE('',#698,#699);
#698 = CARTESIAN_POINT('',(-8.75,-2.5,-4.));
#699 = VECTOR('',#700,1.);
#700 = DIRECTION('',(0.,0.,1.));
#701 = ORIENTED_EDGE('',*,*,#583,.F.);
#702 = ORIENTED_EDGE('',*,*,#696,.F.);
#703 = CYLINDRICAL_SURFACE('',#704,1.);
#704 = AXIS2_PLACEMENT_3D('',#705,#706,#707);
#705 = CARTESIAN_POINT('',(-9.75,-2.5,-4.));
#706 = DIRECTION('',(-0.,-0.,-1.));
#707 = DIRECTION('',(1.,0.,0.));
#708 = ADVANCED_FACE('',(#709),#720,.F.);
#709 = FACE_BOUND('',#710,.T.);
#710 = EDGE_LOOP('',(#711,#712,#718,#719));
#711 = ORIENTED_EDGE('',*,*,#489,.T.);
#712 = ORIENTED_EDGE('',*,*,#713,.T.);
#713 = EDGE_CURVE('',#490,#595,#714,.T.);
#714 = LINE('',#715,#716);
#715 = CARTESIAN_POINT('',(10.75,-2.5,-4.));
#716 = VECTOR('',#717,1.);
#717 = DIRECTION('',(0.,0.,1.));
#718 = ORIENTED_EDGE('',*,*,#594,.F.);
#719 = ORIENTED_EDGE('',*,*,#713,.F.);
#720 = CYLINDRICAL_SURFACE('',#721,1.);
#721 = AXIS2_PLACEMENT_3D('',#722,#723,#724);
#722 = CARTESIAN_POINT('',(9.75,-2.5,-4.));
#723 = DIRECTION('',(-0.,-0.,-1.));
#724 = DIRECTION('',(1.,0.,0.));
#725 = ADVANCED_FACE('',(#726),#737,.F.);
#726 = FACE_BOUND('',#727,.T.);
#727 = EDGE_LOOP('',(#728,#729,#735,#736));
#728 = ORIENTED_EDGE('',*,*,#500,.T.);
#729 = ORIENTED_EDGE('',*,*,#730,.T.);
#730 = EDGE_CURVE('',#501,#606,#731,.T.);
#731 = LINE('',#732,#733);
#732 = CARTESIAN_POINT('',(13.75,-2.5,-4.));
#733 = VECTOR('',#734,1.);
#734 = DIRECTION('',(0.,0.,1.));
#735 = ORIENTED_EDGE('',*,*,#605,.F.);
#736 = ORIENTED_EDGE('',*,*,#730,.F.);
#737 = CYLINDRICAL_SURFACE('',#738,1.);
#738 = AXIS2_PLACEMENT_3D('',#739,#740,#741);
#739 = CARTESIAN_POINT('',(12.75,-2.5,-4.));
#740 = DIRECTION('',(-0.,-0.,-1.));
#741 = DIRECTION('',(1.,0.,0.));
#742 = ADVANCED_FACE('',(#743),#754,.F.);
#743 = FACE_BOUND('',#744,.T.);
#744 = EDGE_LOOP('',(#745,#746,#752,#753));
#745 = ORIENTED_EDGE('',*,*,#511,.T.);
#746 = ORIENTED_EDGE('',*,*,#747,.T.);
#747 = EDGE_CURVE('',#512,#617,#748,.T.);
#748 = LINE('',#749,#750);
#749 = CARTESIAN_POINT('',(-11.75,2.5,-4.));
#750 = VECTOR('',#751,1.);
#751 = DIRECTION('',(0.,0.,1.));
#752 = ORIENTED_EDGE('',*,*,#616,.F.);
#753 = ORIENTED_EDGE('',*,*,#747,.F.);
#754 = CYLINDRICAL_SURFACE('',#755,1.);
#755 = AXIS2_PLACEMENT_3D('',#756,#757,#758);
#756 = CARTESIAN_POINT('',(-12.75,2.5,-4.));
#757 = DIRECTION('',(-0.,-0.,-1.));
#758 = DIRECTION('',(1.,0.,0.));
#759 = ADVANCED_FACE('',(#760),#771,.F.);
#760 = FACE_BOUND('',#761,.T.);
#761 = EDGE_LOOP('',(#762,#763,#769,#770));
#762 = ORIENTED_EDGE('',*,*,#522,.T.);
#763 = ORIENTED_EDGE('',*,*,#764,.T.);
#764 = EDGE_CURVE('',#523,#628,#765,.T.);
#765 = LINE('',#766,#767);
#766 = CARTESIAN_POINT('',(-8.75,2.5,-4.));
#767 = VECTOR('',#768,1.);
#768 = DIRECTION('',(0.,0.,1.));
#769 = ORIENTED_EDGE('',*,*,#627,.F.);
#770 = ORIENTED_EDGE('',*,*,#764,.F.);
#771 = CYLINDRICAL_SURFACE('',#772,1.);
#772 = AXIS2_PLACEMENT_3D('',#773,#774,#775);
#773 = CARTESIAN_POINT('',(-9.75,2.5,-4.));
#774 = DIRECTION('',(-0.,-0.,-1.));
#775 = DIRECTION('',(1.,0.,0.));
#776 = ADVANCED_FACE('',(#777),#788,.F.);
#777 = FACE_BOUND('',#778,.T.);
#778 = EDGE_LOOP('',(#779,#780,#786,#787));
#779 = ORIENTED_EDGE('',*,*,#533,.T.);
#780 = ORIENTED_EDGE('',*,*,#781,.T.);
#781 = EDGE_CURVE('',#534,#639,#782,.T.);
#782 = LINE('',#783,#784);
#783 = CARTESIAN_POINT('',(10.75,2.5,-4.));
#784 = VECTOR('',#785,1.);
#785 = DIRECTION('',(0.,0.,1.));
#786 = ORIENTED_EDGE('',*,*,#638,.F.);
#787 = ORIENTED_EDGE('',*,*,#781,.F.);
#788 = CYLINDRICAL_SURFACE('',#789,1.);
#789 = AXIS2_PLACEMENT_3D('',#790,#791,#792);
#790 = CARTESIAN_POINT('',(9.75,2.5,-4.));
#791 = DIRECTION('',(-0.,-0.,-1.));
#792 = DIRECTION('',(1.,0.,0.));
#793 = ADVANCED_FACE('',(#794),#805,.F.);
#794 = FACE_BOUND('',#795,.T.);
#795 = EDGE_LOOP('',(#796,#797,#803,#804));
#796 = ORIENTED_EDGE('',*,*,#544,.T.);
#797 = ORIENTED_EDGE('',*,*,#798,.T.);
#798 = EDGE_CURVE('',#545,#650,#799,.T.);
#799 = LINE('',#800,#801);
#800 = CARTESIAN_POINT('',(13.75,2.5,-4.));
#801 = VECTOR('',#802,1.);
#802 = DIRECTION('',(0.,0.,1.));
#803 = ORIENTED_EDGE('',*,*,#649,.F.);
#804 = ORIENTED_EDGE('',*,*,#798,.F.);
#805 = CYLINDRICAL_SURFACE('',#806,1.);
#806 = AXIS2_PLACEMENT_3D('',#807,#808,#809);
#807 = CARTESIAN_POINT('',(12.75,2.5,-4.));
#808 = DIRECTION('',(-0.,-0.,-1.));
#809 = DIRECTION('',(1.,0.,0.));
#810 = ( GEOMETRIC_REPRESENTATION_CONTEXT(3) 
GLOBAL_UNCERTAINTY_ASSIGNED_CONTEXT((#814)) GLOBAL_UNIT_ASSIGNED_CONTEXT
((#811,#812,#813)) REPRESENTATION_CONTEXT('Context #1',
  '3D Context with UNIT and UNCERTAINTY') );
#811 = ( LENGTH_UNIT() NAMED_UNIT(*) SI_UNIT(.MILLI.,.METRE.) );
#812 = ( NAMED_UNIT(*) PLANE_ANGLE_UNIT() SI_UNIT($,.RADIAN.) );
#813 = ( NAMED_UNIT(*) SI_UNIT($,.STERADIAN.) SOLID_ANGLE_UNIT() );
#814 = UNCERTAINTY_MEASURE_WITH_UNIT(LENGTH_MEASURE(1.E-07),#811,
  'distance_accuracy_value','confusion accuracy');
#815 = CONTEXT_DEPENDENT_SHAPE_REPRESENTATION(#816,#818);
#816 = ( REPRESENTATION_RELATIONSHIP('','',#347,#10) 
REPRESENTATION_RELATIONSHIP_WITH_TRANSFORMATION(#817) 
SHAPE_REPRESENTATION_RELATIONSHIP() );
#817 = ITEM_DEFINED_TRANSFORMATION('','',#11,#19);
#818 = PRODUCT_DEFINITION_SHAPE('Placement','Placement of an item',#819
  );
#819 = NEXT_ASSEMBLY_USAGE_OCCURRENCE('2','Cut','',#5,#342,$);
#820 = PRODUCT_RELATED_PRODUCT_CATEGORY('part',$,(#344));
#821 = MECHANICAL_DESIGN_GEOMETRIC_PRESENTATION_REPRESENTATION('',(#822)
  ,#810);
#822 = STYLED_ITEM('color',(#823),#348);
#823 = PRESENTATION_STYLE_ASSIGNMENT((#824,#830));
#824 = SURFACE_STYLE_USAGE(.BOTH.,#825);
#825 = SURFACE_SIDE_STYLE('',(#826));
#826 = SURFACE_STYLE_FILL_AREA(#827);
#827 = FILL_AREA_STYLE('',(#828));
#828 = FILL_AREA_STYLE_COLOUR('',#829);
#829 = COLOUR_RGB('',0.776470591567,0.274509816483,0.);
#830 = CURVE_STYLE('',#831,POSITIVE_LENGTH_MEASURE(0.1),#832);
#831 = DRAUGHTING_PRE_DEFINED_CURVE_FONT('continuous');
#832 = COLOUR_RGB('',9.803921802644E-02,9.803921802644E-02,
  9.803921802644E-02);
#833 = MECHANICAL_DESIGN_GEOMETRIC_PRESENTATION_REPRESENTATION('',(#834)
  ,#329);
#834 = STYLED_ITEM('color',(#835),#37);
#835 = PRESENTATION_STYLE_ASSIGNMENT((#836,#842));
#836 = SURFACE_STYLE_USAGE(.BOTH.,#837);
#837 = SURFACE_SIDE_STYLE('',(#838));
#838 = SURFACE_STYLE_FILL_AREA(#839);
#839 = FILL_AREA_STYLE('',(#840));
#840 = FILL_AREA_STYLE_COLOUR('',#841);
#841 = DRAUGHTING_PRE_DEFINED_COLOUR('black');
#842 = CURVE_STYLE('',#843,POSITIVE_LENGTH_MEASURE(0.1),#832);
#843 = DRAUGHTING_PRE_DEFINED_CURVE_FONT('continuous');
ENDSEC;
END-ISO-10303-21;
